<?xml version="1.0" standalone="no"?>
<!DOCTYPE svg PUBLIC "-//W3C//DTD SVG 20010904//EN"
 "http://www.w3.org/TR/2001/REC-SVG-20010904/DTD/svg10.dtd">
<svg version="1.0" xmlns="http://www.w3.org/2000/svg"
 width="1024.000000pt" height="1024.000000pt" viewBox="0 0 1024.000000 1024.000000"
 preserveAspectRatio="xMidYMid meet">
<metadata>
Created by potrace 1.11, written by Peter Selinger 2001-2013
</metadata>
<g transform="translate(0.000000,1024.000000) scale(0.100000,-0.100000)"
fill="#000000" stroke="none">
<path d="M1700 10230 c0 -5 -18 -10 -40 -10 -22 0 -48 -4 -58 -9 -9 -5 -33
-16 -53 -25 -20 -9 -42 -22 -49 -31 -7 -8 -18 -15 -24 -15 -7 0 -27 -16 -46
-35 -19 -19 -39 -35 -44 -35 -15 0 -174 -177 -203 -225 -35 -58 -65 -126 -60
-139 5 -14 27 -25 102 -57 17 -6 36 -24 43 -38 15 -31 16 -88 1 -97 -6 -3 -9
-15 -6 -25 3 -10 1 -22 -4 -25 -5 -3 -9 -15 -9 -28 0 -12 -5 -27 -12 -34 -15
-15 -48 -16 -48 -2 0 6 -13 10 -29 10 -68 0 -109 -131 -63 -198 10 -15 21 -34
25 -43 8 -22 63 -49 101 -49 24 0 34 -6 43 -26 11 -23 10 -29 -10 -45 -24 -20
-92 -26 -102 -9 -10 15 -45 12 -51 -5 -9 -22 39 -114 86 -168 22 -25 40 -49
40 -54 0 -5 20 -29 45 -53 25 -24 45 -49 45 -55 0 -14 62 -75 76 -75 6 0 19
-9 29 -20 10 -11 30 -26 44 -34 14 -7 40 -21 56 -30 17 -9 44 -16 62 -16 17 0
35 -4 38 -10 3 -5 30 -10 60 -10 30 0 57 -4 60 -10 4 -6 115 -10 300 -10 185
0 296 4 300 10 3 6 28 10 55 10 27 0 51 4 54 9 3 5 21 12 40 15 18 4 41 15 51
26 10 11 23 20 29 20 14 0 166 152 166 166 0 6 11 21 25 34 14 13 25 29 25 37
0 7 5 13 10 13 6 0 10 9 10 20 0 11 3 20 8 20 10 0 32 50 32 71 0 10 4 20 10
24 5 3 7 12 4 19 -3 8 -1 17 5 21 15 8 15 585 1 585 -5 0 -10 10 -10 22 0 29
-50 130 -72 146 -10 7 -18 19 -18 26 0 6 -16 27 -35 46 -19 19 -35 39 -35 45
0 14 -202 215 -216 215 -6 0 -19 9 -29 20 -10 11 -24 20 -32 20 -7 0 -16 7
-19 15 -4 8 -15 15 -25 15 -10 0 -34 9 -54 20 -20 11 -45 20 -56 20 -12 0 -17
4 -13 11 3 6 19 9 35 7 20 -3 29 0 29 9 0 10 -59 13 -310 13 -200 0 -310 -4
-310 -10z"/>
<path d="M4230 9650 c0 -5 -11 -10 -24 -10 -14 0 -28 -4 -31 -10 -3 -5 -13
-10 -22 -10 -43 0 -142 -63 -216 -138 -75 -76 -94 -99 -116 -150 -6 -12 -18
-25 -26 -28 -10 -4 -15 -20 -15 -50 0 -39 2 -44 23 -44 13 0 27 4 32 9 6 4 24
13 42 19 42 14 57 -2 41 -44 -11 -30 -47 -54 -80 -54 -15 0 -18 -8 -18 -50 0
-41 22 -112 40 -130 3 -3 15 -24 27 -47 21 -41 21 -43 3 -43 -10 0 -21 4 -24
9 -9 14 -60 20 -73 9 -31 -25 4 -142 56 -187 11 -10 21 -22 21 -27 0 -13 193
-204 207 -204 6 0 13 -7 17 -15 3 -8 14 -15 25 -15 11 0 36 -9 56 -20 20 -11
51 -20 70 -20 18 0 37 -4 40 -10 4 -6 87 -10 215 -10 128 0 211 4 215 10 3 6
24 10 45 10 21 0 42 5 45 10 3 6 15 10 26 10 17 0 36 8 79 32 8 4 24 12 35 17
42 19 143 134 161 184 3 9 10 17 15 17 5 0 9 11 9 24 0 14 5 28 10 31 6 3 10
17 10 30 0 13 4 26 9 30 5 3 7 20 4 39 -3 19 -1 36 6 40 7 5 11 61 11 170 0
140 -3 168 -19 202 -11 22 -27 46 -35 54 -9 7 -16 18 -16 24 0 7 -11 23 -25
36 -14 13 -25 28 -25 34 0 21 -214 225 -242 231 -16 4 -28 11 -28 16 0 5 -9 9
-20 9 -11 0 -20 5 -20 10 0 16 -83 12 -118 -5 -32 -16 -62 -63 -62 -97 0 -11
-4 -16 -10 -13 -5 3 -10 18 -10 32 0 16 -13 38 -36 59 l-35 34 -125 0 c-76 0
-124 -4 -124 -10z"/>
<path d="M6045 8390 c-3 -5 -33 -10 -65 -10 -32 0 -62 -4 -65 -10 -3 -5 -17
-10 -31 -10 -31 0 -106 -33 -124 -55 -7 -8 -18 -15 -24 -15 -7 0 -23 -11 -35
-24 -28 -29 -92 -156 -86 -167 3 -4 1 -10 -5 -14 -5 -3 -10 -21 -10 -40 0 -19
-4 -37 -10 -40 -6 -4 -10 -60 -10 -135 0 -75 4 -131 10 -135 6 -3 10 -21 10
-39 0 -18 3 -36 7 -40 4 -4 8 -13 8 -19 1 -28 46 -105 83 -140 50 -49 164
-106 225 -114 26 -3 47 -10 47 -14 0 -5 27 -9 59 -9 33 0 63 -4 66 -10 3 -6
48 -10 100 -10 52 0 97 4 100 10 3 6 28 10 55 10 27 0 52 5 55 10 3 6 15 10
27 10 37 0 92 34 148 90 58 58 103 131 94 154 -3 8 -1 17 5 21 15 8 15 341 1
350 -6 4 -9 12 -8 18 1 7 -11 39 -27 72 -28 58 -139 185 -161 185 -6 0 -17 7
-24 15 -21 25 -113 66 -163 72 -26 3 -50 10 -53 14 -3 5 -36 9 -75 9 -39 0
-69 4 -69 10 0 6 -11 10 -24 10 -14 0 -28 -4 -31 -10z"/>
<path d="M3440 8140 c0 -5 -6 -10 -13 -10 -8 0 -24 -11 -37 -25 -13 -14 -28
-25 -33 -25 -5 0 -43 -34 -85 -75 -49 -49 -84 -75 -98 -75 -13 0 -26 -5 -29
-11 -4 -6 -13 -8 -21 -5 -7 3 -16 1 -19 -4 -4 -6 -26 -10 -51 -10 -24 0 -44
-4 -44 -10 0 -6 -66 -10 -179 -10 -109 0 -182 -4 -186 -10 -4 -6 -138 -10
-371 -10 l-364 0 0 -304 c0 -193 -4 -307 -10 -311 -5 -3 -10 -44 -10 -90 0
-46 -4 -86 -9 -90 -5 -3 -7 -20 -4 -39 3 -19 1 -36 -6 -40 -6 -4 -11 -17 -11
-30 0 -12 -13 -35 -30 -51 -16 -16 -30 -35 -30 -42 0 -8 -7 -16 -15 -19 -8 -4
-15 -12 -15 -19 0 -7 -7 -18 -15 -25 -9 -7 -25 -32 -36 -54 -30 -60 -44 -84
-62 -104 -10 -10 -17 -22 -17 -27 0 -4 -10 -22 -23 -39 -13 -17 -31 -47 -40
-67 -9 -20 -23 -42 -31 -48 -8 -7 -17 -24 -21 -38 -3 -15 -14 -34 -24 -42 -9
-9 -25 -32 -34 -52 -9 -20 -23 -42 -32 -49 -18 -15 -20 -30 -2 -30 15 0 337
321 337 336 0 6 9 19 20 29 37 33 70 115 70 173 0 29 5 63 11 75 14 27 50 67
60 67 11 0 40 -61 34 -71 -3 -4 -1 -10 5 -14 6 -4 10 -57 10 -130 0 -72 4
-126 10 -130 6 -3 10 -28 10 -55 0 -27 5 -52 10 -55 6 -3 10 -18 11 -33 1 -46
51 -124 92 -146 36 -19 37 -19 57 -1 34 30 50 75 50 136 0 32 5 61 11 64 5 4
9 17 8 28 -3 34 12 79 25 72 6 -3 19 -8 29 -11 9 -4 17 -14 17 -24 0 -23 28
-77 48 -93 20 -15 42 -51 42 -70 0 -7 -14 -26 -31 -43 -39 -37 -64 -88 -54
-111 5 -10 7 -22 6 -27 -1 -4 4 -15 10 -23 17 -20 -14 -54 -33 -35 -7 7 -35
12 -63 12 -45 0 -51 -3 -62 -27 -15 -32 -17 -113 -3 -113 6 0 10 -18 10 -40 0
-35 14 -75 31 -90 3 -3 9 -12 12 -20 4 -8 16 -28 26 -45 35 -55 21 -128 -19
-102 -24 14 -50 -6 -50 -39 0 -12 -4 -26 -10 -29 -13 -8 -13 -132 0 -140 6 -3
10 -33 10 -66 0 -33 4 -59 10 -59 6 0 10 -25 10 -55 0 -30 -4 -55 -9 -55 -5 0
-19 20 -31 45 -12 25 -26 47 -30 50 -19 12 -76 148 -72 172 2 6 -2 14 -8 18
-5 3 -10 17 -10 31 0 13 -4 24 -10 24 -5 0 -10 20 -10 44 0 25 -4 48 -10 51
-6 3 -10 48 -10 100 0 52 -4 97 -10 100 -6 3 -10 21 -10 40 0 52 -18 83 -54
90 -17 3 -41 11 -54 17 -17 9 -25 9 -34 0 -7 -7 -24 -12 -39 -12 -15 0 -31 -5
-34 -11 -4 -5 -18 -14 -31 -19 -14 -6 -31 -26 -41 -50 -10 -22 -21 -40 -25
-40 -5 0 -8 -15 -8 -34 0 -19 -4 -38 -10 -41 -15 -9 -12 -61 5 -75 17 -14 111
-6 131 11 7 6 16 4 24 -6 11 -13 -4 -49 -91 -223 l-104 -207 0 -131 c0 -126 2
-140 36 -206 5 -10 9 -23 9 -31 0 -18 75 -165 96 -188 11 -12 30 -19 54 -19
33 0 80 -31 80 -53 0 -11 -58 -8 -65 3 -3 6 -15 10 -26 10 -10 0 -29 6 -40 13
-26 15 -169 156 -169 166 0 4 -13 20 -30 36 -16 15 -32 40 -35 56 -4 15 -13
33 -21 40 -8 6 -22 28 -31 48 -9 20 -20 38 -24 41 -4 3 -16 23 -28 45 -11 23
-39 58 -61 80 l-40 39 0 -36 c0 -20 5 -40 10 -43 6 -3 10 -15 10 -26 0 -11 11
-40 25 -65 14 -25 25 -50 25 -57 0 -17 126 -266 145 -287 8 -9 15 -21 15 -27
0 -5 9 -18 20 -28 11 -10 20 -23 20 -29 0 -21 95 -106 118 -106 15 0 22 -6 22
-19 0 -11 -4 -23 -10 -26 -13 -8 -13 -72 0 -80 6 -3 10 -22 10 -40 0 -19 9
-50 20 -70 11 -20 20 -44 20 -55 0 -10 5 -22 10 -25 6 -4 9 -12 8 -18 -3 -14
52 -130 64 -135 4 -2 8 -7 8 -12 0 -15 60 -139 70 -145 6 -3 22 -31 36 -60 14
-30 29 -57 35 -60 5 -4 18 -25 29 -48 27 -55 41 -78 63 -98 9 -9 17 -19 17
-23 0 -3 16 -29 35 -56 19 -27 35 -54 35 -58 0 -5 12 -19 26 -33 14 -13 30
-33 35 -44 17 -38 38 -66 118 -156 23 -25 41 -50 41 -56 0 -5 20 -29 45 -53
25 -24 45 -49 45 -55 0 -5 103 -114 230 -240 126 -126 230 -235 230 -241 0 -6
11 -21 25 -34 31 -29 105 -175 105 -206 0 -13 5 -26 10 -29 6 -4 10 -60 10
-135 0 -75 -4 -131 -10 -135 -5 -3 -10 -24 -10 -45 0 -21 -5 -42 -10 -45 -6
-3 -10 -24 -10 -45 0 -21 -4 -41 -9 -44 -5 -3 -12 -35 -16 -71 -3 -36 -11 -67
-16 -70 -5 -4 -9 -17 -9 -30 0 -13 -4 -27 -10 -30 -5 -3 -10 -19 -10 -35 0
-16 -5 -32 -10 -35 -6 -3 -10 -17 -10 -30 0 -13 -5 -27 -11 -31 -6 -3 -9 -17
-6 -30 2 -14 0 -27 -4 -30 -5 -3 -9 -21 -9 -40 0 -19 -4 -34 -10 -34 -5 0 -10
-11 -10 -24 0 -14 -5 -28 -10 -31 -6 -3 -10 -22 -10 -41 0 -19 -4 -34 -10 -34
-5 0 -10 -20 -10 -44 0 -25 -5 -48 -10 -51 -12 -7 -13 -24 -12 -210 0 -172 0
-183 12 -190 5 -3 10 -15 10 -25 0 -11 9 -35 20 -55 11 -20 20 -44 20 -55 0
-11 4 -20 9 -20 5 0 12 -12 16 -28 8 -34 83 -112 107 -112 10 0 30 7 43 16 20
13 25 25 25 58 0 35 -6 48 -33 73 -17 16 -47 36 -64 44 -28 12 -33 19 -33 46
0 18 5 33 10 33 6 0 10 10 11 23 0 12 9 36 19 52 11 17 27 46 37 65 24 48 51
78 87 95 16 8 31 15 32 15 10 0 34 -63 34 -89 0 -16 5 -33 10 -36 14 -8 14
-415 0 -415 -5 0 -10 -20 -10 -44 0 -25 -5 -48 -10 -51 -6 -4 -8 -10 -5 -14 5
-10 -22 -68 -36 -77 -15 -9 -37 14 -44 45 -6 30 -60 101 -76 101 -6 0 -9 -32
-7 -77 3 -73 4 -77 33 -94 33 -19 105 -24 133 -10 9 6 38 13 64 16 26 3 50 10
53 16 4 5 14 9 25 9 10 0 38 10 62 21 23 12 52 25 63 30 36 14 140 63 145 69
3 3 16 10 30 17 14 6 52 24 85 39 33 16 62 31 65 34 3 3 16 10 30 17 14 6 52
24 85 39 33 16 62 31 65 34 3 3 23 14 45 24 22 9 48 21 57 26 10 6 27 10 38
10 11 0 20 3 20 8 0 4 14 13 32 21 29 13 33 13 49 -7 9 -12 21 -22 25 -22 5 0
75 -64 156 -143 226 -218 323 -307 334 -307 6 0 25 -16 44 -35 19 -19 39 -35
45 -35 7 0 20 -9 30 -20 10 -11 24 -20 30 -20 7 0 18 -6 24 -13 6 -8 40 -29
76 -47 52 -27 67 -30 79 -21 25 21 36 3 19 -28 -16 -27 -16 -30 8 -59 23 -30
26 -31 112 -31 52 -1 87 3 87 9 0 6 6 10 13 10 20 0 57 43 57 67 0 27 26 49
43 36 19 -16 65 -24 72 -13 3 5 12 7 20 4 8 -3 27 7 43 23 39 38 66 53 100 53
16 0 31 3 35 6 10 10 104 15 402 20 160 3 284 9 289 14 6 6 29 10 53 10 24 0
43 5 43 10 0 6 6 10 13 10 21 0 94 82 102 115 5 17 7 35 6 42 -1 6 3 14 9 18
5 3 10 24 10 45 0 21 5 42 10 45 6 3 10 24 10 45 0 21 5 42 10 45 6 3 10 28
10 55 0 27 5 52 10 55 6 3 10 33 10 65 0 32 4 61 9 64 5 3 6 25 4 50 -3 26 -1
46 6 50 6 4 11 34 11 66 0 32 5 62 10 65 6 3 10 24 10 45 0 21 5 42 10 45 6 3
10 23 10 44 0 20 4 41 9 47 5 5 11 29 15 54 17 137 27 189 37 196 5 3 9 21 9
40 0 19 5 34 10 34 6 0 10 15 10 34 0 19 4 37 9 40 10 7 24 64 22 89 -6 48
-13 47 554 47 503 0 533 1 548 18 10 10 17 24 17 30 0 7 3 12 8 12 4 0 12 9
17 19 6 11 23 46 39 78 17 32 40 72 53 89 13 17 23 36 23 41 0 6 7 17 16 24 9
7 20 22 25 34 15 31 34 63 50 82 8 10 21 32 29 48 8 17 17 32 20 35 16 16 60
80 60 88 0 5 7 15 15 22 8 7 24 31 35 54 25 52 41 77 62 96 9 9 20 28 23 42 4
15 15 34 26 44 10 9 19 22 19 27 0 6 7 19 17 29 19 21 40 56 49 81 3 9 10 17
15 17 5 0 9 6 9 14 0 7 7 20 16 27 9 7 20 22 25 34 16 34 35 64 52 83 10 10
17 22 17 27 0 4 11 23 25 41 14 18 25 36 25 40 0 4 7 16 17 26 18 20 32 44 62
105 12 23 27 46 34 50 12 8 39 53 76 129 11 22 27 47 36 54 8 7 15 18 15 25 0
8 10 26 23 42 13 15 36 55 51 88 48 105 51 110 56 115 9 8 60 119 60 130 0 6
7 10 15 10 12 0 15 14 15 63 0 71 9 61 -105 112 -33 15 -68 31 -77 36 -10 5
-27 9 -37 9 -11 0 -22 4 -26 9 -3 6 -37 13 -75 17 -39 4 -73 11 -76 15 -3 5
-30 9 -60 9 -30 0 -54 5 -54 10 0 6 -25 10 -55 10 -30 0 -55 5 -55 10 0 6 -25
10 -55 10 l-55 0 0 34 c0 19 -5 38 -11 41 -6 4 -9 22 -7 40 1 19 -1 37 -5 41
-4 4 -7 24 -7 45 0 21 -4 41 -10 44 -5 3 -10 28 -10 55 0 27 -4 52 -10 55 -5
3 -10 26 -10 51 0 24 -4 44 -10 44 -5 0 -10 20 -10 44 0 25 -5 48 -10 51 -6 4
-11 25 -11 48 1 59 -9 130 -20 142 -5 5 -9 26 -9 46 0 21 -4 41 -10 44 -5 3
-10 24 -10 45 0 21 -4 42 -10 45 -5 3 -10 24 -10 45 0 21 -5 42 -11 45 -6 4
-9 22 -7 40 1 19 -1 37 -5 41 -4 4 -7 22 -7 40 0 18 -4 36 -10 39 -5 3 -10 22
-10 41 0 19 -4 34 -10 34 -5 0 -10 15 -10 34 0 19 -4 38 -10 41 -5 3 -10 18
-10 33 -1 15 -7 38 -15 52 -8 14 -14 34 -15 45 0 11 -9 27 -20 35 -11 8 -20
19 -20 25 0 15 -63 75 -78 75 -7 0 -12 5 -12 10 0 6 -20 10 -44 10 -25 0 -48
5 -51 10 -3 6 -46 10 -95 10 -49 0 -92 -4 -95 -10 -4 -6 -60 -10 -135 -10 -75
0 -131 -4 -135 -10 -3 -5 -37 -10 -75 -10 -38 0 -72 -4 -75 -10 -3 -5 -28 -10
-55 -10 -27 0 -51 -4 -54 -9 -3 -4 -40 -11 -83 -15 -42 -3 -82 -11 -87 -16 -6
-6 -20 -10 -33 -10 -32 0 -30 -32 4 -47 15 -7 47 -13 72 -13 72 0 93 -9 85
-34 -14 -46 -40 -61 -107 -60 -34 1 -71 3 -82 6 -32 7 -105 42 -105 50 0 5
-10 8 -23 8 -13 0 -27 4 -33 10 -5 5 -45 13 -87 16 -43 4 -80 11 -83 15 -3 5
-33 9 -68 9 -66 0 -145 31 -181 70 -10 11 -22 20 -26 20 -10 0 -129 118 -129
128 0 4 -20 28 -45 52 -25 24 -45 49 -45 55 0 6 -16 26 -35 45 -19 19 -35 39
-35 45 0 6 -16 26 -35 45 -19 19 -35 39 -35 45 0 6 -13 24 -30 40 -16 16 -30
33 -30 39 0 11 -34 48 -172 186 -134 135 -185 178 -235 199 -11 6 -24 15 -28
20 -3 6 -25 20 -48 31 -44 21 -78 41 -87 50 -10 11 -196 100 -207 100 -7 0
-27 8 -46 19 -18 10 -48 22 -65 26 -18 3 -34 11 -37 16 -4 5 -17 9 -30 9 -13
0 -27 5 -30 10 -3 6 -17 10 -31 10 -13 0 -24 5 -24 10 0 6 -15 10 -33 10 -18
0 -39 6 -45 13 -9 8 -47 12 -117 12 l-104 0 -18 34 c-16 31 -53 61 -93 77 -8
3 -23 10 -32 15 -10 5 -25 9 -33 9 -8 0 -23 4 -33 9 -9 5 -35 17 -57 26 -72
29 -68 25 -99 94 -11 23 -16 63 -16 123 0 52 -4 88 -10 88 -5 0 -10 18 -10 40
0 22 -4 48 -9 58 -5 9 -17 37 -27 62 -10 25 -26 54 -36 66 -10 11 -18 25 -18
30 0 13 -253 264 -266 264 -5 0 -30 20 -54 45 -24 25 -49 45 -54 45 -5 0 -22
12 -37 26 -29 28 -62 49 -91 60 -10 3 -18 10 -18 15 0 5 -11 9 -24 9 -14 0
-28 5 -31 10 -3 6 -33 10 -66 10 -33 0 -59 -4 -59 -10z m-1194 -692 c34 -40
44 -67 44 -113 0 -41 2 -45 25 -45 16 0 25 6 25 15 0 8 5 15 10 15 6 0 10 5
10 12 0 20 62 78 84 78 11 0 33 -12 48 -27 22 -21 28 -36 28 -69 0 -25 5 -44
13 -47 10 -4 10 -7 0 -18 -13 -13 -19 -180 -7 -192 4 -3 12 -1 18 6 14 14 46
81 46 94 0 6 9 18 20 28 11 10 20 24 20 32 0 7 5 13 10 13 6 0 10 -24 10 -53
0 -29 5 -64 12 -78 12 -25 58 -55 58 -38 0 5 18 9 40 9 41 0 79 -15 93 -37 4
-7 13 -13 20 -13 6 0 49 -37 94 -82 78 -77 81 -83 66 -100 -10 -11 -30 -18
-52 -18 -26 0 -44 -8 -68 -32 -30 -29 -33 -38 -33 -89 0 -32 -5 -61 -11 -65
-6 -3 -9 -17 -6 -30 2 -14 0 -27 -4 -30 -5 -3 -9 -20 -9 -39 0 -19 -4 -37 -10
-40 -14 -9 -12 -99 2 -113 7 -7 24 -12 39 -12 15 0 31 -4 34 -10 3 -5 32 -10
64 -10 47 0 61 -4 77 -22 34 -41 47 -69 35 -81 -6 -6 -11 -26 -11 -44 0 -18
-4 -33 -9 -33 -5 0 -11 -9 -14 -21 -3 -11 -15 -23 -26 -26 -12 -3 -21 -9 -21
-14 0 -5 -9 -9 -20 -9 -11 0 -20 5 -20 10 0 6 -6 10 -13 10 -14 0 -127 110
-127 124 0 5 -8 16 -17 25 -22 20 -35 40 -73 118 -17 34 -35 65 -39 68 -5 3
-19 26 -32 53 -12 26 -29 55 -37 65 -16 18 -36 50 -50 82 -15 32 -50 58 -68
51 -9 -3 -14 -12 -11 -20 3 -7 -11 -30 -32 -50 -36 -35 -38 -36 -119 -36 -79
0 -82 1 -82 23 0 13 9 32 20 42 11 10 20 23 20 30 0 6 16 26 35 45 19 19 35
39 35 45 0 7 9 20 19 29 12 11 19 29 18 44 -2 21 -8 28 -30 30 -15 2 -27 7
-27 11 0 5 -9 11 -21 14 -17 5 -19 9 -9 26 6 12 15 21 20 21 6 0 10 6 10 14 0
7 7 20 16 27 39 33 49 99 19 131 -58 65 -120 61 -190 -12 -16 -16 -32 -30 -37
-30 -12 0 -10 58 2 65 6 3 10 28 10 55 0 27 5 52 10 55 6 3 10 17 10 30 0 13
-4 27 -10 30 -5 3 -10 16 -10 29 0 32 -21 72 -44 82 -43 19 -29 34 31 34 49 0
63 -4 79 -22z m657 -1500 c42 -24 55 -39 50 -59 -9 -31 66 -27 106 7 17 14 38
23 46 20 17 -6 20 -22 5 -31 -5 -3 -10 -14 -10 -24 0 -9 -13 -30 -29 -45 -25
-24 -40 -29 -98 -33 -39 -3 -88 -14 -115 -26 -45 -21 -48 -24 -48 -60 0 -49
18 -67 69 -67 22 0 42 -4 45 -9 3 -4 29 -11 58 -15 28 -4 63 -15 77 -25 14 -9
52 -31 84 -47 96 -48 103 -52 146 -95 44 -42 47 -55 18 -73 -12 -8 -22 -7 -37
2 -11 6 -33 12 -50 12 -30 0 -30 -1 -30 -54 0 -49 4 -58 43 -103 74 -84 75
-89 30 -135 -21 -22 -54 -47 -73 -55 -19 -9 -48 -26 -65 -37 -40 -28 -115 -66
-130 -66 -7 0 -20 9 -30 20 -10 11 -23 20 -30 20 -6 0 -26 16 -45 35 -19 19
-39 35 -45 35 -7 0 -20 9 -30 20 -10 11 -31 20 -47 20 -33 0 -32 2 -12 -40 13
-26 15 -49 10 -108 -3 -42 -11 -81 -16 -86 -6 -6 -10 -18 -10 -28 0 -10 -4
-26 -9 -36 -22 -41 -46 -98 -47 -112 -1 -9 -13 -37 -28 -63 -14 -26 -26 -54
-26 -61 0 -7 -16 -43 -35 -80 -19 -37 -35 -73 -35 -80 0 -6 -20 -51 -45 -99
-25 -48 -45 -97 -45 -107 0 -11 -4 -20 -10 -20 -5 0 -10 -9 -10 -20 0 -11 -4
-20 -8 -20 -4 0 -16 -22 -27 -50 -11 -27 -22 -50 -25 -50 -25 0 -30 34 -30
205 0 101 -4 185 -9 190 -6 6 -12 78 -14 160 -7 274 -8 567 -3 573 3 3 6 20 6
39 0 33 11 60 40 98 26 33 44 95 31 108 -6 6 -11 23 -11 38 0 15 -4 31 -10 34
-5 3 -10 17 -10 31 0 21 3 24 22 18 48 -15 110 -112 101 -158 -4 -21 2 -35 23
-58 45 -47 76 -58 157 -58 60 0 79 4 101 21 24 19 26 26 26 94 0 41 -4 77 -10
80 -5 3 -10 14 -10 24 0 27 -43 103 -65 115 -11 6 -23 16 -27 21 -5 7 -14 6
-28 -2 -31 -20 -54 -15 -67 14 -15 32 -17 99 -3 108 6 3 10 19 10 34 0 30 20
81 33 81 4 0 7 5 7 12 0 15 40 58 55 58 6 0 17 9 25 20 8 11 24 20 37 20 12 0
25 5 28 10 9 14 81 12 108 -2z m314 -30 c13 -12 23 -33 23 -49 0 -15 5 -31 10
-34 14 -9 13 -25 -2 -25 -15 0 -78 60 -78 75 0 5 -10 15 -22 20 -38 17 -34 35
8 35 25 0 46 -7 61 -22z m3200 -443 c17 -9 36 -22 43 -30 7 -8 18 -15 24 -15
14 0 105 -95 124 -127 6 -13 12 -35 12 -50 0 -43 36 -73 87 -73 24 0 52 5 63
10 11 6 29 15 40 20 26 13 40 13 73 -2 23 -11 27 -19 27 -55 0 -23 5 -45 10
-48 6 -3 10 -24 10 -46 0 -23 5 -39 12 -39 15 0 58 40 58 55 0 19 83 93 113
100 15 4 27 11 27 16 0 5 11 9 24 9 14 0 28 5 31 10 3 6 33 10 65 10 32 0 62
5 65 10 3 6 28 10 54 10 26 0 51 3 54 6 4 4 23 7 42 8 27 1 43 -6 63 -27 l26
-27 -43 -44 -43 -44 -2 -89 c-2 -122 4 -128 108 -119 44 3 84 10 90 16 5 5 56
10 112 10 58 0 106 4 109 10 3 6 17 10 31 10 21 0 24 5 24 33 0 23 -8 41 -25
57 -14 13 -25 28 -25 34 0 5 -10 20 -22 33 -21 22 -21 23 -3 43 19 21 60 27
70 10 3 -5 16 -10 28 -10 16 0 28 -13 45 -48 23 -50 28 -82 13 -82 -5 0 -12
-11 -15 -25 -9 -36 -72 -103 -115 -121 -20 -9 -44 -20 -53 -25 -10 -5 -66 -9
-125 -10 -88 0 -113 -4 -138 -20 -16 -10 -37 -22 -45 -26 -8 -3 -22 -15 -31
-25 -9 -10 -26 -18 -37 -18 -11 0 -23 -4 -26 -9 -3 -5 -44 -10 -91 -13 -111
-6 -125 -17 -125 -104 0 -35 5 -66 10 -69 6 -3 10 -28 10 -56 0 -40 -3 -49
-18 -49 -23 0 -84 65 -104 110 -8 19 -22 50 -29 68 -8 17 -17 32 -21 32 -5 0
-8 9 -8 20 0 11 -4 20 -9 20 -5 0 -12 8 -15 18 -19 52 -99 142 -151 168 -36
19 -212 30 -269 17 -42 -9 -74 -47 -75 -90 -1 -12 -5 -25 -11 -28 -6 -4 -10
-65 -10 -150 0 -85 4 -146 10 -150 6 -3 10 -28 10 -55 0 -27 -4 -52 -10 -55
-5 -3 -10 -16 -10 -27 0 -36 -39 -68 -80 -68 -40 0 -100 25 -100 42 0 5 -9 23
-21 39 -18 25 -27 29 -69 29 -27 0 -52 -4 -55 -10 -13 -21 -82 -10 -149 24
-91 46 -136 90 -136 132 0 18 5 36 10 39 21 13 10 59 -22 92 -38 40 -72 42
-107 9 -25 -24 -26 -28 -21 -122 4 -63 10 -99 18 -102 7 -2 12 -9 12 -16 0 -7
16 -27 35 -46 19 -19 35 -39 35 -45 0 -7 9 -20 20 -30 22 -20 28 -85 8 -85
-16 0 -78 -61 -78 -77 0 -7 -4 -13 -10 -13 -5 0 -10 -15 -10 -34 0 -19 -5 -38
-11 -41 -6 -4 -9 -35 -8 -73 1 -47 -4 -80 -17 -109 -22 -50 -38 -59 -69 -39
-24 16 -75 109 -75 137 0 10 -4 21 -10 24 -5 3 -10 46 -10 95 0 49 5 92 10 95
6 3 10 40 10 81 0 82 -18 114 -64 114 -31 0 -54 -26 -38 -42 7 -7 12 -22 12
-34 0 -13 5 -26 10 -29 6 -3 10 -17 10 -31 0 -30 -25 -32 -75 -4 -70 39 -125
17 -125 -51 0 -21 -4 -41 -10 -44 -5 -3 -10 -35 -10 -70 0 -35 5 -67 10 -70 6
-3 10 -39 10 -80 0 -41 5 -77 10 -80 6 -3 10 -23 11 -43 0 -20 8 -50 18 -67
14 -24 25 -31 57 -33 44 -4 84 -35 84 -66 0 -23 -39 -46 -76 -46 -13 0 -26 -5
-30 -11 -7 -11 50 -71 79 -82 10 -4 20 -14 24 -23 9 -24 -54 -80 -99 -88 -36
-7 -38 -5 -38 19 0 14 -3 25 -7 25 -11 0 -33 50 -33 71 0 10 -5 21 -11 24 -6
4 -8 13 -5 21 3 7 1 16 -4 19 -6 4 -10 17 -10 30 0 13 -4 27 -10 30 -5 3 -10
17 -10 31 0 13 -4 24 -10 24 -5 0 -10 11 -10 24 0 14 -4 28 -10 31 -5 3 -10
17 -10 30 0 13 -5 27 -11 30 -6 4 -8 13 -5 21 3 7 1 16 -4 19 -6 4 -10 17 -10
30 0 13 -4 27 -10 30 -5 3 -10 17 -10 31 0 13 -4 24 -10 24 -5 0 -10 11 -10
24 0 14 -4 28 -10 31 -5 3 -10 21 -10 40 0 19 -4 36 -10 40 -5 3 -7 12 -4 19
3 8 1 17 -5 21 -6 3 -11 17 -11 30 0 13 -4 27 -10 30 -5 3 -10 17 -10 31 0 13
-4 24 -10 24 -5 0 -10 11 -10 24 0 14 -4 27 -9 30 -8 6 -18 50 -23 110 -2 23
3 33 27 47 17 10 47 18 67 18 20 1 40 6 43 11 3 6 37 10 75 10 38 0 72 5 75
10 3 6 22 10 41 10 38 0 65 13 107 49 26 23 27 29 27 112 0 48 3 89 8 91 4 2
16 21 27 43 18 34 26 40 58 43 20 2 37 7 37 13 0 5 5 9 11 9 29 0 38 36 39
141 0 124 13 160 67 186 28 13 39 14 54 5 10 -7 27 -12 37 -12 18 0 97 -77
120 -117 6 -13 12 -34 12 -47 0 -14 5 -28 10 -31 6 -4 10 -55 10 -120 0 -70 4
-116 11 -120 6 -4 9 -32 8 -66 -1 -32 1 -62 4 -66 4 -3 7 -18 7 -33 0 -29 21
-80 33 -80 4 0 7 -8 7 -18 0 -38 86 -63 127 -36 44 28 73 62 73 83 0 11 5 23
10 26 6 4 10 80 10 195 0 115 -4 191 -10 195 -5 3 -10 24 -10 45 0 21 -4 42
-10 45 -5 3 -10 16 -10 29 0 31 -18 46 -57 46 -33 0 -33 0 -33 49 0 28 5 53
10 56 6 3 10 17 10 30 0 13 5 27 11 30 5 4 8 12 6 18 -13 34 99 177 139 177
11 0 35 -7 51 -15z m-1784 -1280 c19 -19 38 -35 43 -35 13 0 224 -213 224
-227 0 -6 14 -19 31 -27 29 -15 33 -15 45 2 8 9 13 33 12 52 -3 50 9 66 33 44
10 -9 19 -23 19 -31 0 -7 5 -13 10 -13 6 0 10 -11 10 -24 0 -14 5 -28 10 -31
6 -3 10 -42 10 -85 0 -43 -4 -82 -10 -85 -24 -15 -1 -135 26 -135 24 0 84 -85
84 -120 0 -11 5 -20 10 -20 6 0 10 -20 10 -44 0 -25 5 -48 10 -51 6 -4 10 -53
10 -114 0 -84 -3 -111 -15 -121 -40 -33 -45 -66 -45 -281 0 -128 4 -210 10
-214 6 -3 10 -33 10 -65 0 -32 5 -62 10 -65 6 -3 10 -24 10 -45 0 -21 5 -42
10 -45 6 -3 10 -19 10 -35 0 -16 5 -32 10 -35 6 -3 10 -16 10 -28 0 -30 37
-88 60 -94 11 -3 26 -18 33 -33 32 -64 -42 -85 -100 -28 -18 18 -33 37 -33 42
-1 16 -77 66 -100 66 -10 0 -22 5 -25 10 -3 6 -19 10 -35 10 -16 0 -32 5 -35
10 -3 6 -16 10 -28 10 -36 0 -84 36 -103 77 -10 21 -23 41 -28 45 -6 4 -7 10
-3 14 8 9 37 -14 37 -30 0 -21 77 -89 94 -83 31 12 15 207 -16 207 -5 0 -8 6
-8 13 0 7 -16 28 -35 47 -31 30 -35 40 -35 86 0 29 5 56 10 59 15 10 12 46 -7
67 -12 13 -31 18 -75 18 -32 0 -58 4 -58 9 0 5 -12 11 -27 13 -17 2 -32 12
-38 26 -5 12 -13 22 -17 22 -5 0 -8 36 -8 79 0 44 -4 83 -10 86 -5 3 -10 16
-10 27 0 35 -29 58 -72 58 -21 0 -46 4 -56 9 -9 5 -24 12 -33 15 -34 10 -49
64 -49 177 0 63 4 110 10 114 6 4 10 12 9 18 -4 22 18 62 50 92 27 25 33 27
41 15 5 -8 10 -29 10 -46 0 -40 21 -82 59 -118 23 -22 43 -30 81 -34 28 -2 53
-9 56 -13 3 -5 21 -9 40 -9 33 0 35 2 32 27 -2 17 -12 32 -26 39 -27 14 -72
54 -72 66 0 11 47 10 54 -1 9 -14 139 -23 169 -12 22 9 27 17 27 46 0 19 -5
45 -12 58 -25 49 -28 58 -28 86 0 17 -4 33 -10 36 -5 3 -10 23 -10 43 0 30 -5
39 -27 50 -32 14 -209 16 -218 2 -3 -5 -24 -10 -45 -10 -21 0 -42 -4 -45 -10
-3 -6 -49 -10 -104 -10 -95 0 -151 13 -151 35 0 22 82 93 139 121 20 10 103
96 119 122 14 26 16 128 2 137 -15 9 -12 35 5 35 8 0 29 -16 48 -35z"/>
</g>
</svg>
